#!OML:ASF I:\golf\golf\golf 2\Subject 1\2002-09-07\Subject1.ASF
:FULLY-SPECIFIED
:DEGREES
290
root -1.91069 17.4995 -2.07814 69.913 26.0641 15.7829
lowerback 36.7519 4.03867 8.83696
upperback 17.3244 8.70651 13.778
thorax -0.172575 4.01307 7.18684
lowerneck -16.3106 -11.5291 -7.37152
upperneck -6.87375 -14.5721 2.10072
head 1.16814 -7.34289 0.952632
rclavicle -4.13472e-014 1.27222e-014
rhumerus 61.634 -12.5861 -26.6125
rradius 20.3264
rwrist 12.0801
rhand -31.5638 13.9118
rfingers 7.12502
rthumb -4.82754 -16.0132
lclavicle -4.13472e-014 1.27222e-014
lhumerus -19.2968 -60.7325 98.65
lradius 55.4105
lwrist -23.3228
lhand -52.0393 28.1713
lfingers 7.12502
lthumb -24.5452 56.618
rfemur -88.138 -7.25726 14.4174
rtibia 32.8819
rfoot -1.54747 -13.635
rtoes 20.3909
lfemur -37.289 -0.871485 -5.62569
ltibia 34.5054
lfoot 11.5355 -6.63616
ltoes -14.0459
291
root -1.90293 17.5148 -2.08203 69.6864 26.0208 15.8897
lowerback 36.6881 3.94131 8.84365
upperback 17.2866 8.58769 13.6878
thorax -0.164885 3.96682 7.12845
lowerneck -16.2116 -11.4927 -7.39744
upperneck -6.91028 -14.5218 2.21723
head 1.15072 -7.31312 1.00306
rclavicle 1.17681e-013 7.31528e-014
rhumerus 60.8815 -11.7694 -26.0569
rradius 20.3423
rwrist 9.70936
rhand -30.2729 12.2851
rfingers 7.12502
rthumb -3.58096 -17.6645
lclavicle 1.17681e-013 7.31528e-014
lhumerus -19.3683 -60.461 98.6855
lradius 55.2327
lwrist -23.0583
lhand -51.9262 27.2764
lfingers 7.12502
lthumb -24.4368 55.7378
rfemur -87.6657 -7.29343 14.144
rtibia 32.5557
rfoot -1.32782 -13.8755
rtoes 20.5343
lfemur -36.8302 -0.718594 -5.89261
ltibia 34.0898
lfoot 11.4437 -6.87823
ltoes -15.8293
292
root -1.89679 17.5343 -2.08644 69.4289 25.949 16.0159
lowerback 36.6165 3.85203 8.80251
upperback 17.2647 8.46171 13.5925
thorax -0.143973 3.91631 7.09195
lowerneck -16.0599 -11.47 -7.44583
upperneck -7.07664 -14.4947 2.34161
head 1.08364 -7.29406 1.06522
rclavicle 3.49861e-014 -4.13472e-014
rhumerus 60.2568 -11.095 -25.9589
rradius 20.2385
rwrist 7.80694
rhand -28.9412 10.9325
rfingers 7.12502
rthumb -2.29494 -19.0349
lclavicle 3.49861e-014 -4.13472e-014
lhumerus -19.4745 -60.2124 98.7091
lradius 55.1305
lwrist -22.637
lhand -51.9426 26.2746
lfingers 7.12502
lthumb -24.4525 54.7339
rfemur -87.1075 -7.31449 13.7848
rtibia 32.2165
rfoot -1.19905 -14.0557
rtoes 20.6524
lfemur -36.381 -0.75023 -6.0863
ltibia 33.7308
lfoot 11.4625 -6.77763
ltoes -16.1997
293
root -1.88914 17.5575 -2.09085 69.134 25.961 16.1169
lowerback 36.5423 3.74662 8.8574
upperback 17.2267 8.349 13.5243
thorax -0.129812 3.87469 7.03145
lowerneck -15.9101 -11.4723 -7.43875
upperneck -7.18601 -14.5116 2.38267
head 1.02597 -7.30075 1.08782
rclavicle 7.63333e-014 7.63333e-014
rhumerus 59.5621 -10.4305 -25.8197
rradius 20.1371
rwrist 6.13353
rhand -27.5316 9.78369
rfingers 7.12502
rthumb -0.933484 -20.194
lclavicle 7.63333e-014 7.63333e-014
lhumerus -19.6193 -60.0606 98.7872
lradius 55.1335
lwrist -22.1073
lhand -51.9065 25.4619
lfingers 7.12502
lthumb -24.4179 53.9258
rfemur -86.4793 -7.32021 13.4098
rtibia 31.8631
rfoot -1.1262 -14.2855
rtoes 21.8212
lfemur -35.9765 -0.856514 -6.14522
ltibia 33.4309
lfoot 11.5336 -6.52946
ltoes -15.5305
294
root -1.87945 17.5801 -2.09666 68.8468 26.007 16.2072
lowerback 36.4423 3.64891 8.9357
upperback 17.1647 8.25323 13.4739
thorax -0.134704 3.84106 6.97168
lowerneck -15.8387 -11.4839 -7.44515
upperneck -7.07107 -14.524 2.47213
head 1.0629 -7.30506 1.11483
rclavicle -5.40694e-014 -2.70347e-014
rhumerus 58.6614 -9.53146 -25.1561
rradius 20.1812
rwrist 4.00185
rhand -26.4112 8.65255
rfingers 7.12502
rthumb 0.148573 -21.3271
lclavicle -5.40694e-014 -2.70347e-014
lhumerus -19.7279 -59.9704 98.8976
lradius 55.0843
lwrist -21.5327
lhand -51.7931 24.8326
lfingers 7.12502
lthumb -24.3092 53.3111
rfemur -85.874 -7.35534 13.1253
rtibia 31.5065
rfoot -1.01483 -14.3474
rtoes 21.3068
lfemur -35.6393 -0.989783 -6.18679
ltibia 33.169
lfoot 11.4791 -6.52551
ltoes -15.7764
295
root -1.86985 17.5989 -2.10429 68.6117 26.0261 16.3397
lowerback 36.3176 3.57289 8.95281
upperback 17.0855 8.16557 13.4315
thorax -0.163272 3.80834 6.94696
lowerneck -15.7933 -11.4964 -7.50858
upperneck -6.90108 -14.5231 2.58225
head 1.12872 -7.30088 1.15441
rclavicle -4.13472e-014 -1.43125e-014
rhumerus 57.8466 -8.83977 -25.2726
rradius 20.1156
rwrist 2.55152
rhand -25.8719 7.83021
rfingers 7.12502
rthumb 0.669438 -22.1485
lclavicle -4.13472e-014 -1.43125e-014
lhumerus -19.9193 -59.9276 99.1351
lradius 54.9793
lwrist -20.8251
lhand -51.7315 24.17
lfingers 7.12502
lthumb -24.2501 52.6564
rfemur -85.3408 -7.43411 12.9424
rtibia 31.1555
rfoot -0.974609 -14.3508
rtoes 19.9605
lfemur -35.374 -1.17439 -6.26085
ltibia 32.9304
lfoot 11.4222 -6.38081
ltoes -15.8379
